<!-- SVG Sprite -->
<svg width="0" height="0" class="hidden">

  <symbol xmlns="http://www.w3.org/2000/svg" fill="none" viewBox="0 0 32 32" id="css">
    <path fill="#1172B8" d="M6 28 4 3h24l-2 25-10 3-10-3Z"></path>
    <path fill="#3AD" d="M26 5H16v24.5l8-2.5 2-22Z"></path>
    <path fill="#fff" d="M19.5 17.5h-10L9 14l8-2.5H9l-.5-3H24l-.5 3.5-6.5 2.5h6L22 24l-6 2-6-2-.5-5h3l.5 2.5 3 1 3-1 .5-4Z"></path>
  </symbol>

  <symbol xmlns="http://www.w3.org/2000/svg" fill="none" viewBox="0 0 32 32" id="figma">
    <g fill-rule="evenodd" clip-rule="evenodd">
      <path fill="#1ABCFE" d="M16 16a4 4 0 1 1 8 0 4 4 0 0 1-8 0Z"></path>
      <path fill="#0ACF83" d="M8 24a4 4 0 0 1 4-4h4v4a4 4 0 0 1-8 0Z"></path>
      <path fill="#FF7262" d="M16 4v8h4a4 4 0 0 0 0-8h-4Z"></path>
      <path fill="#F24E1E" d="M8 8a4 4 0 0 0 4 4h4V4h-4a4 4 0 0 0-4 4Z"></path>
      <path fill="#A259FF" d="M8 16a4 4 0 0 0 4 4h4v-8h-4a4 4 0 0 0-4 4Z"></path>
    </g>
  </symbol>

  <symbol xmlns="http://www.w3.org/2000/svg" fill="none" viewBox="0 0 32 32" id="git">
    <path fill="#EE513B" d="M2.585 17.413a1.999 1.999 0 0 1 0-2.826L14.587 2.585c.78-.78 2.046-.78 2.826 0l12.002 12.002c.78.78.78 2.046 0 2.826L17.413 29.415c-.78.78-2.046.78-2.826 0L2.585 17.413Z"></path>
    <path fill="#fff" d="m12.149 5.062-1.215 1.215 3.139 3.139A2.126 2.126 0 0 0 15.25 12.3v7.679a2.126 2.126 0 1 0 1.718.097v-7.765l3 3a2.125 2.125 0 1 0 1.283-1.147l-3.221-3.223a2.125 2.125 0 0 0-2.66-2.66l-3.221-3.22Z"></path>
  </symbol>

  <symbol xmlns="http://www.w3.org/2000/svg" viewBox="0 0 20 20" id="github">
    <path fill="currentColor" fill-rule="evenodd" d="M10 0c5.523 0 10 4.59 10 10.253 0 4.529-2.862 8.371-6.833 9.728-.507.101-.687-.219-.687-.492 0-.338.012-1.442.012-2.814 0-.956-.32-1.58-.679-1.898 2.227-.254 4.567-1.121 4.567-5.059 0-1.12-.388-2.034-1.03-2.752.104-.259.447-1.302-.098-2.714 0 0-.838-.275-2.747 1.051A9.396 9.396 0 0 0 10 4.958a9.375 9.375 0 0 0-2.503.345C5.586 3.977 4.746 4.252 4.746 4.252c-.543 1.412-.2 2.455-.097 2.714-.639.718-1.03 1.632-1.03 2.752 0 3.928 2.335 4.808 4.556 5.067-.286.256-.545.708-.635 1.371-.57.262-2.018.715-2.91-.852 0 0-.529-.985-1.533-1.057 0 0-.975-.013-.068.623 0 0 .655.315 1.11 1.5 0 0 .587 1.83 3.369 1.21.005.857.014 1.665.014 1.909 0 .271-.184.588-.683.493C2.865 18.627 0 14.783 0 10.253 0 4.59 4.478 0 10 0"></path>
  </symbol>

  <symbol xmlns="http://www.w3.org/2000/svg" fill="none" viewBox="0 0 32 32" id="html">
    <path fill="#E44D26" d="M6 28 4 3h24l-2 25-10 3-10-3Z"></path>
    <path fill="#F16529" d="M26 5H16v24.5l8-2.5 2-22Z"></path>
    <path fill="#fff" d="M9.5 17.5 8.5 8H24l-.5 3h-12l.5 3.5h11L22 24l-6 2-6-2-.5-5h3l.5 2.5 3 1 3-1 .5-4h-10Z"></path>
  </symbol>

  <symbol xmlns="http://www.w3.org/2000/svg" fill="none" viewBox="0 0 32 32" id="js">
    <path fill="#FFCA28" d="M2 2h28v28H2z"></path>
    <path fill="#3E3E3E" d="m19 25.288 2.061-1.364c.162.507 1.185 1.713 2.477 1.713 1.293 0 1.893-.706 1.893-1.174 0-1.275-1.32-1.725-1.954-1.94a3.689 3.689 0 0 1-.246-.09 3.68 3.68 0 0 0-.133-.053c-.705-.269-3.306-1.262-3.306-4.143 0-3.172 3.062-3.537 3.754-3.537.453 0 2.63.056 3.716 2.094l-2 1.396c-.439-.889-1.167-1.182-1.616-1.182-1.108 0-1.338.812-1.338 1.182 0 1.037 1.203 1.502 2.22 1.894.265.103.518.2.734.303 1.107.523 2.738 1.38 2.738 4.076C28 25.813 26.867 28 24.015 28c-3.83 0-4.846-2.3-5.015-2.712Zm-10 .271 2.149-1.364c.168.508.822 1.443 1.772 1.443.949 0 1.435-.975 1.435-1.443V15h2.642v9.195c.043 1.269-.66 3.805-3.765 3.805-2.853 0-4.04-1.696-4.233-2.44Z"></path>
  </symbol>

  <symbol xmlns="http://www.w3.org/2000/svg" preserveAspectRatio="xMidYMid" viewBox="0 -0.5 256 256" id="py">
    <path fill="#387EB8" d="M126.916.072c-64.832 0-60.784 28.115-60.784 28.115l.072 29.128h61.868v8.745H41.631S.145 61.355.145 126.77c0 65.417 36.21 63.097 36.21 63.097h21.61v-30.356s-1.165-36.21 35.632-36.21h61.362s34.475.557 34.475-33.319V33.97S194.67.072 126.916.072ZM92.802 19.66a11.12 11.12 0 0 1 11.13 11.13 11.12 11.12 0 0 1-11.13 11.13 11.12 11.12 0 0 1-11.13-11.13 11.12 11.12 0 0 1 11.13-11.13Z"></path>
    <path fill="#FFE052" d="M128.757 254.126c64.832 0 60.784-28.115 60.784-28.115l-.072-29.127H127.6v-8.745h86.441s41.486 4.705 41.486-60.712c0-65.416-36.21-63.096-36.21-63.096h-21.61v30.355s1.165 36.21-35.632 36.21h-61.362s-34.475-.557-34.475 33.32v56.013s-5.235 33.897 62.518 33.897Zm34.114-19.586a11.12 11.12 0 0 1-11.13-11.13 11.12 11.12 0 0 1 11.13-11.131 11.12 11.12 0 0 1 11.13 11.13 11.12 11.12 0 0 1-11.13 11.13Z"></path>
  </symbol>

  <symbol xmlns="http://www.w3.org/2000/svg" viewBox="0 0 32 32" id="vscode">
    <path d="m29.01 5.03-5.766-2.776a1.742 1.742 0 0 0-1.989.338L2.38 19.8a1.166 1.166 0 0 0-.08 1.647c.025.027.05.053.077.077l1.541 1.4a1.165 1.165 0 0 0 1.489.066L28.142 5.75A1.158 1.158 0 0 1 30 6.672v-.067a1.748 1.748 0 0 0-.99-1.575Z" style="fill:#0065a9"/>
    <path d="m29.01 26.97-5.766 2.777a1.745 1.745 0 0 1-1.989-.338L2.38 12.2a1.166 1.166 0 0 1-.08-1.647c.025-.027.05-.053.077-.077l1.541-1.4A1.165 1.165 0 0 1 5.41 9.01l22.732 17.24A1.158 1.158 0 0 0 30 25.328v.072a1.749 1.749 0 0 1-.99 1.57Z" style="fill:#007acc"/>
    <path d="M23.244 29.747a1.745 1.745 0 0 1-1.989-.338A1.025 1.025 0 0 0 23 28.684V3.316a1.024 1.024 0 0 0-1.749-.724 1.744 1.744 0 0 1 1.989-.339l5.765 2.772A1.748 1.748 0 0 1 30 6.6v18.8a1.748 1.748 0 0 1-.991 1.576Z" style="fill:#1f9cf0"/>
  </symbol>

  <symbol xmlns="http://www.w3.org/2000/svg" viewBox="0 0 24 24" id="sql">
    <path fill="#00758F" fill-rule="evenodd" d="M5.462 4.04a2.65 2.65 0 0 0-.67.074v.038h.037c.13.267.36.44.521.67l.372.781.038-.037c.23-.162.336-.422.335-.819-.093-.097-.107-.219-.187-.335-.106-.154-.312-.242-.446-.372Zm18.017 19.097c.175.129.293.329.521.41v-.038c-.12-.152-.15-.362-.26-.521a73.62 73.62 0 0 1-.484-.484 7.948 7.948 0 0 0-1.713-1.638c-.508-.365-1.649-.859-1.861-1.451l-.038-.038c.361-.04.784-.171 1.117-.26.56-.15 1.06-.112 1.638-.26.261-.076.521-.15.782-.224v-.15c-.292-.3-.5-.696-.819-.967-.834-.71-1.743-1.42-2.68-2.01-.52-.329-1.162-.541-1.713-.82-.185-.093-.51-.142-.632-.297-.29-.37-.447-.837-.67-1.266-.467-.9-.927-1.883-1.34-2.83-.283-.645-.467-1.281-.82-1.86-1.69-2.78-3.51-4.457-6.328-6.106-.6-.35-1.322-.489-2.084-.67l-1.229-.074c-.25-.105-.51-.41-.744-.559C3.188.434.792-.849.102.838c-.437 1.065.652 2.104 1.042 2.643.273.379.623.803.819 1.229.128.28.15.56.26.856.271.73.506 1.522.856 2.196.178.341.373.7.596 1.005.138.187.372.27.409.559-.23.321-.242.82-.371 1.228-.582 1.835-.363 4.115.484 5.473.259.416.87 1.31 1.711.967.736-.3.572-1.228.782-2.047.047-.186.019-.323.112-.447v.037l.67 1.34c.496.799 1.376 1.634 2.122 2.197.386.292.69.797 1.191.968v-.038h-.037c-.098-.15-.25-.213-.372-.335a8.554 8.554 0 0 1-.857-.968c-.678-.92-1.277-1.928-1.823-2.977-.261-.502-.488-1.054-.708-1.564-.085-.197-.084-.494-.26-.596-.241.374-.596.676-.782 1.117-.298.705-.337 1.565-.447 2.457-.065.023-.036.007-.075.037-.518-.125-.7-.659-.893-1.117-.487-1.157-.578-3.022-.149-4.355.111-.345.613-1.431.41-1.75-.098-.318-.417-.501-.596-.744A5.83 5.83 0 0 1 3.6 7.166c-.398-.902-.585-1.916-1.005-2.829-.2-.436-.54-.877-.819-1.265-.308-.43-.654-.746-.893-1.266-.085-.185-.201-.48-.075-.67.04-.128.097-.182.224-.223.216-.167.817.055 1.042.148.597.248 1.095.484 1.6.82.243.16.489.472.782.558h.335c.525.12 1.112.037 1.601.186.865.263 1.64.672 2.345 1.117 2.146 1.355 3.9 3.283 5.1 5.584.193.37.277.724.447 1.117.343.792.775 1.607 1.116 2.382.34.773.673 1.553 1.154 2.196.253.338 1.231.52 1.676.708.311.131.821.269 1.116.446.564.34 1.11.745 1.638 1.117.264.187 1.077.595 1.117.93-1.31-.034-2.31.087-3.164.448-.243.102-.63.105-.67.409.133.14.154.35.26.521.204.33.549.773.856 1.005.337.254.683.525 1.043.745.64.39 1.356.614 1.972 1.005.365.231.726.521 1.08.782Z"></path>
  </symbol>

  <symbol xmlns="http://www.w3.org/2000/svg" viewBox="-1 0 258 258" id="xampp">
    <g fill="none" fill-rule="evenodd">
      <path fill="#FB7A24" d="M127.929.002c33.227 0 66.455 0 99.682-.002 4.17 0 8.3.362 12.301 1.582 8.675 2.644 13.268 8.865 15.068 17.438.715 3.4.918 6.865.925 10.33.053 23.27.092 46.542.094 69.814.002 42.384.007 84.768-.08 127.151-.012 5.933-.328 11.931-3.257 17.336-3.249 5.994-7.697 10.738-14.45 12.824-1.22.377-2.494.806-3.745.806-2.882.002-5.687.716-8.56.716-65.067-.005-130.133.033-195.2-.07-5.292-.01-10.67-.395-15.697-2.548-1-.43-2.01-.79-2.89-1.46-6.4-4.877-10.746-10.96-11.678-19.191-.335-2.968-.442-5.92-.442-8.889.01-65.952.016-131.904.05-197.856.003-3.826.042-7.718 1.219-11.38C4.403 6.846 11.261 1.519 21.427.437 23.79.185 26.173.022 28.547.02 61.672-.007 94.801.002 127.928.002Z"></path>
      <path fill="#FFF" d="M128.775 164.113c-.727 4.454-1.238 8.48-2.838 12.19-7.49 17.384-20.256 27.977-39.394 30.086-22.621 2.492-43.515-11.47-49.797-33.154-2.277-7.858-2.049-15.869-1.223-23.867.881-8.546 3.399-16.65 7.33-24.296.563-1.093.552-1.918-.152-2.977-6.036-9.078-8.378-19.107-7.528-29.932.455-5.786 1.86-11.32 4.483-16.504 7.689-15.185 24.57-28.072 47.179-25.932 19.88 1.88 38.293 19.029 41.167 38.315.145.968.417 1.918.735 3.346.476-2.586.82-4.72 1.265-6.834 3.703-17.521 20.854-35.855 45.164-36.082 24.64-.228 42.887 19.097 46.33 37.045 1.455 7.585 1.202 15.163.002 22.738a81.02 81.02 0 0 1-6.672 21.775c-.716 1.529-.642 2.63.275 4.05 5.307 8.224 7.649 17.252 7.349 27.056-.628 20.457-15.097 38.802-35.002 43.6-27.79 6.697-49.093-9.923-56.262-30.031-1.17-3.273-1.723-6.69-2.41-10.592Zm50.489-35.94c.297-1.157 1.193-1.85 1.837-2.706 6.968-9.26 10.633-19.603 9.815-31.25-.596-8.5-7.587-14.488-16.05-14.171-8.469.317-14.85 6.848-14.97 15.322-.009.694.033 1.389-.01 2.078-.583 9.031-5.566 13.978-13.117 14.53-1.379.101-2.762.224-4.143.228-9.8.022-19.599.018-29.4.009-4.28-.004-8.524.462-12.6 1.72-19.027 5.87-30.122 18.882-33.796 38.275-.728 3.837-1.383 7.819-.125 11.76 1.805 5.653 5.17 9.857 11.126 11.263 6.173 1.457 11.55-.155 15.822-5.004 2.761-3.135 3.632-6.86 3.838-10.948.534-10.515 6.26-15.771 15.81-15.692 14.649.122 29.3.026 43.951.037 2.6.001 2.624.036 2.637 2.608.025 4.75-.121 9.507.062 14.252.298 7.747 7.114 14.186 15.016 14.413 8.148.233 15.411-5.794 15.942-13.661.458-6.81.429-13.661-.018-20.476-.346-5.275-3.2-9.035-8.036-11.217-1.16-.522-2.38-.913-3.591-1.37Zm-91.832-15.984c3.151 0 5.723-.029 8.293.013 1.274.02 1.746-.528 1.736-1.777-.042-4.943.213-9.902-.102-14.827-.416-6.497-3.871-11.194-9.92-13.563-6.202-2.429-11.878-1.043-16.678 3.538-4.821 4.603-5.464 10.232-3.777 16.392 1.55 5.662 5.21 8.878 10.968 9.85 3.344.563 6.707.293 9.48.374Z"></path>
    </g>
  </symbol>

  <symbol xmlns="http://www.w3.org/2000/svg" fill="none" viewBox="0 0 24 24" id="bootstrap">
    <path fill="#7811f2" fill-rule="evenodd" d="M4.985 2c-1.37 0-2.383 1.199-2.337 2.498.043 1.25-.013 2.867-.42 4.186-.41 1.322-1.1 2.16-2.228 2.268v1.215c1.128.107 1.819.945 2.227 2.268.408 1.319.464 2.936.42 4.185-.045 1.3.968 2.499 2.338 2.499h14.032c1.37 0 2.383-1.199 2.337-2.499-.043-1.249.013-2.866.42-4.185.409-1.323 1.098-2.16 2.226-2.268v-1.215c-1.128-.108-1.817-.946-2.226-2.268-.407-1.32-.463-2.937-.42-4.186C21.4 3.198 20.386 2 19.017 2H4.985ZM16.27 13.769c0 1.79-1.335 2.875-3.55 2.875H8.949a.407.407 0 0 1-.407-.407V6.881a.407.407 0 0 1 .407-.406h3.75c1.847 0 3.06 1 3.06 2.537 0 1.078-.816 2.043-1.855 2.213v.056c1.415.155 2.367 1.135 2.367 2.488Zm-3.96-6.005h-2.15v3.038h1.811c1.4 0 2.172-.564 2.172-1.572 0-.944-.664-1.466-1.833-1.466Zm-2.15 4.243v3.347h2.23c1.457 0 2.23-.585 2.23-1.684 0-1.1-.794-1.663-2.324-1.663H10.16Z" clip-rule="evenodd"></path>
  </symbol>

  <symbol xmlns="http://www.w3.org/2000/svg" fill="currentColor" stroke="currentColor" viewBox="0 0 32 32" id="li">
    <path d="M28.778 1.004H3.191a2.185 2.185 0 0 0-2.186 2.159v25.672a2.186 2.186 0 0 0 2.186 2.161h25.612c1.2 0 2.175-.963 2.194-2.159V3.165a2.195 2.195 0 0 0-2.195-2.161h-.029.001zM9.9 26.562H5.446V12.251H9.9zM7.674 10.293a2.579 2.579 0 1 1 2.579-2.58v.004a2.577 2.577 0 0 1-2.577 2.577h-.003zm18.882 16.269h-4.441v-6.959c0-1.66-.034-3.795-2.314-3.795-2.316 0-2.669 1.806-2.669 3.673v7.082h-4.441V12.252h4.266v1.951h.058a4.686 4.686 0 0 1 4.22-2.312h-.009c4.5 0 5.332 2.962 5.332 6.817v7.855z"></path>
  </symbol>

  <symbol xmlns="http://www.w3.org/2000/svg" fill="currentColor" stroke="currentColor" viewBox="0 0 24 24" id="demo">
    <path d="m21.71 8.29-3-3a1 1 0 0 0-1.42 1.42L18.59 8h-1.88a11.78 11.78 0 0 0-10.6 6.55 1 1 0 0 0 .44 1.34A.93.93 0 0 0 7 16a1 1 0 0 0 .89-.55A9.81 9.81 0 0 1 16.71 10h1.88l-1.3 1.29a1 1 0 0 0 0 1.42 1 1 0 0 0 1.42 0l3-3a1 1 0 0 0 0-1.42Z"></path>
    <path d="M20 21H4a2 2 0 0 1-2-2V5a2 2 0 0 1 2-2h8a1 1 0 0 1 0 2H4v14h16v-3a1 1 0 0 1 2 0v3a2 2 0 0 1-2 2Z"></path>
  </symbol>
  <symbol xmlns="http://www.w3.org/2000/svg" fill="currentColor" viewBox="0 0 20 20" id="insta">
    <path fill-rule="evenodd" d="M5.87.123C4.242.196 2.83.594 1.69 1.729.548 2.869.155 4.286.081 5.897.037 6.902-.231 14.498.545 16.49a5.04 5.04 0 0 0 2.91 2.903c.634.246 1.356.412 2.416.461 8.86.401 12.145.183 13.53-3.364.246-.631.415-1.353.462-2.41.405-8.883-.066-10.809-1.61-12.351C17.027.507 15.586-.325 5.87.123m.081 17.944c-.97-.043-1.496-.205-1.848-.341a3.255 3.255 0 0 1-1.888-1.883c-.591-1.514-.395-8.703-.342-9.866.051-1.14.282-2.18 1.086-2.985C3.954 2 5.24 1.513 13.993 1.908c1.142.052 2.186.282 2.992 1.084.995.993 1.489 2.288 1.087 11.008-.044.968-.206 1.493-.342 1.843-.901 2.308-2.973 2.628-11.779 2.224M14.09 4.69c0 .657.534 1.19 1.194 1.19.66 0 1.195-.533 1.195-1.19a1.194 1.194 0 0 0-2.39 0M4.864 9.988a5.103 5.103 0 0 0 5.11 5.097 5.103 5.103 0 0 0 5.109-5.097 5.102 5.102 0 0 0-5.11-5.096 5.102 5.102 0 0 0-5.11 5.096m1.794 0A3.313 3.313 0 0 1 9.972 6.68a3.313 3.313 0 0 1 3.317 3.308 3.313 3.313 0 0 1-3.317 3.31 3.313 3.313 0 0 1-3.316-3.31"></path>
  </symbol>
  <symbol xmlns="http://www.w3.org/2000/svg" fill="currentColor" viewBox="-5 0 20 20" id="face">
    <path fill-rule="evenodd" d="M6.821 20v-9h2.733L10 7H6.821V5.052C6.821 4.022 6.848 3 8.287 3h1.458V.14c0-.043-1.253-.14-2.52-.14C4.58 0 2.924 1.657 2.924 4.7V7H0v4h2.923v9h3.898Z"></path>
  </symbol>

    <symbol xmlns="http://www.w3.org/2000/svg" version="1.2" viewBox="0 0 955.5 939.75" id="icon-dark">
    <defs>
      <clipPath id="a">
        <path d="M794.453 329H952v340H794.453Zm0 0"></path>
      </clipPath>
      <clipPath id="b">
        <path d="M0 328h160.418v343.848H0Zm0 0"></path>
      </clipPath>
      <clipPath id="d">
        <path d="M3 1h157.418v340H3Zm0 0"></path>
      </clipPath>
      <clipPath id="c">
        <path d="M0 0h161v344H0z"></path>
      </clipPath>
      <clipPath id="e">
        <path d="M0 0h486v682H0z"></path>
      </clipPath>
    </defs>
    <g clip-path="url(#a)">
      <path d="M943.219 519.27 794.453 668.04v-45.392a29.003 29.003 0 0 1 .559-5.722c.375-1.89.93-3.727 1.668-5.504a29.013 29.013 0 0 1 2.715-5.07 29.068 29.068 0 0 1 3.652-4.442l108.902-108.922-108.926-108.933a29.363 29.363 0 0 1-8.57-20.734v-34.298c47.91 47.91 112.777 112.778 148.766 148.77a29.118 29.118 0 0 1 3.644 4.445 28.651 28.651 0 0 1 2.707 5.07c.367.887.692 1.79.97 2.712a29.441 29.441 0 0 1 1.121 11.387 29.263 29.263 0 0 1-2.09 8.347 28.651 28.651 0 0 1-2.707 5.07 28.416 28.416 0 0 1-1.712 2.313 28.588 28.588 0 0 1-1.933 2.133Zm0 0" style="stroke:none;fill-rule:nonzero;fill:#f69100;fill-opacity:1"></path>
    </g>
    <g clip-path="url(#b)">
      <g clip-path="url(#c)" transform="translate(0 328)">
        <g clip-path="url(#d)">
          <path d="M11.754 191.27 160.52 340.04v-45.392a29 29 0 0 0-.555-5.722 29.045 29.045 0 0 0-1.668-5.504 29.277 29.277 0 0 0-6.371-9.512L43.027 164.988 151.953 56.055a29.188 29.188 0 0 0 3.637-4.446 29.098 29.098 0 0 0 2.703-5.07 29.18 29.18 0 0 0 2.227-11.219V1.023a7758957.31 7758957.31 0 0 1-148.766 148.77c-.676.68-1.32 1.39-1.93 2.133-.61.742-1.18 1.512-1.71 2.312a29.267 29.267 0 0 0-3.68 7.781 29.68 29.68 0 0 0-1.118 5.637 29.452 29.452 0 0 0 1.118 11.387 29.267 29.267 0 0 0 3.68 7.781c.53.801 1.1 1.57 1.71 2.313.61.742 1.254 1.457 1.93 2.133Zm0 0" style="stroke:none;fill-rule:nonzero;fill:#f69100;fill-opacity:1"></path>
        </g>
      </g>
    </g>
    <g clip-path="url(#e)" transform="translate(259 127)" style="fill:#fff;fill-opacity:1">
      <g>
        <path d="M96.813-132.734v59.859h155.109V0H15.609v-338.328h236.313v72.86H96.812v59.859H228.5v72.875Zm0 0" transform="translate(.673 535.198)"></path>
      </g>
      <g style="fill:#f69100;fill-opacity:1">
        <path d="M200.922-348.75 91.609 0h-76l109.313-348.75Zm0 0" transform="translate(268.234 535.198)"></path>
      </g>
    </g>
  </symbol>
  
  <symbol xmlns="http://www.w3.org/2000/svg" version="1.2" viewBox="0 0 955.5 942" id="icon-light">
    <defs>
      <clipPath id="a">
        <path d="M794.453 329H952v340H794.453Zm0 0"></path>
      </clipPath>
      <clipPath id="b">
        <path d="M0 329h160.418v342.973H0Zm0 0"></path>
      </clipPath>
      <clipPath id="d">
        <path d="M3 .113h157.418V340H3Zm0 0"></path>
      </clipPath>
      <clipPath id="c">
        <path d="M0 0h161v343H0z"></path>
      </clipPath>
    </defs>
    <g clip-path="url(#a)">
      <path d="M943.219 519.398 794.453 668.164v-45.39a29.003 29.003 0 0 1 .559-5.723c.375-1.89.93-3.727 1.668-5.504a29.013 29.013 0 0 1 2.715-5.07 29.068 29.068 0 0 1 3.652-4.442l108.902-108.922L803.023 384.18a29.363 29.363 0 0 1-8.57-20.734v-34.298c47.91 47.91 112.777 112.778 148.766 148.77a29.118 29.118 0 0 1 3.644 4.445 28.651 28.651 0 0 1 2.707 5.07 29.36 29.36 0 0 1 1.668 5.505 29.185 29.185 0 0 1 .563 5.718 29.452 29.452 0 0 1-.563 5.723 28.537 28.537 0 0 1-.699 2.789 28.665 28.665 0 0 1-.969 2.71 28.651 28.651 0 0 1-2.707 5.07 28.066 28.066 0 0 1-1.71 2.314 28.646 28.646 0 0 1-1.934 2.136Zm0 0" style="stroke:none;fill-rule:nonzero;fill:#f69100;fill-opacity:1"></path>
    </g>
    <g clip-path="url(#b)">
      <g clip-path="url(#c)" transform="translate(0 329)">
        <g clip-path="url(#d)">
          <path d="M11.754 190.398 160.52 339.164v-45.39a29 29 0 0 0-.555-5.723 29.045 29.045 0 0 0-1.668-5.504 29.277 29.277 0 0 0-6.371-9.512L43.027 164.113 151.953 55.18a29.188 29.188 0 0 0 3.637-4.446 29.098 29.098 0 0 0 2.703-5.07 29.18 29.18 0 0 0 2.227-11.219V.148a7758957.31 7758957.31 0 0 1-148.766 148.77c-.676.68-1.32 1.39-1.93 2.133-.61.742-1.18 1.512-1.71 2.312a29.267 29.267 0 0 0-3.68 7.781 29.46 29.46 0 0 0-.696 2.793 29.185 29.185 0 0 0-.562 5.72 29.452 29.452 0 0 0 1.258 8.511 29.267 29.267 0 0 0 3.68 7.781 29.478 29.478 0 0 0 3.64 4.45Zm0 0" style="stroke:none;fill-rule:nonzero;fill:#f69100;fill-opacity:1"></path>
        </g>
      </g>
    </g>
    <g style="fill:#262626;fill-opacity:1">
      <path d="M96.813-132.734v59.859h155.125V0H15.608v-338.344h236.328v72.875H96.813v59.86h131.704v72.875Zm0 0" transform="translate(259.677 667.141)"></path>
    </g>
    <g style="fill:#f69100;fill-opacity:1">
      <path d="M200.922-348.75 91.609 0h-76l109.313-348.75Zm0 0" transform="translate(527.229 667.141)"></path>
    </g>
  </symbol>

  <symbol xmlns="http://www.w3.org/2000/svg" version="1.2" viewBox="0 0 955.5 939.75" id="Icon-dark">
    <defs>
      <clipPath id="a">
        <path d="M794.453 329H952v340H794.453Zm0 0"></path>
      </clipPath>
      <clipPath id="b">
        <path d="M0 328h160.418v343.848H0Zm0 0"></path>
      </clipPath>
      <clipPath id="d">
        <path d="M3 1h157.418v340H3Zm0 0"></path>
      </clipPath>
      <clipPath id="c">
        <path d="M0 0h161v344H0z"></path>
      </clipPath>
      <clipPath id="e">
        <path d="M0 0h486v682H0z"></path>
      </clipPath>
    </defs>
    <g clip-path="url(#a)">
      <path d="M943.219 519.27 794.453 668.04v-45.392a29.003 29.003 0 0 1 .559-5.722c.375-1.89.93-3.727 1.668-5.504a29.013 29.013 0 0 1 2.715-5.07 29.068 29.068 0 0 1 3.652-4.442l108.902-108.922-108.926-108.933a29.363 29.363 0 0 1-8.57-20.734v-34.298c47.91 47.91 112.777 112.778 148.766 148.77a29.118 29.118 0 0 1 3.644 4.445 28.651 28.651 0 0 1 2.707 5.07c.367.887.692 1.79.97 2.712a29.441 29.441 0 0 1 1.121 11.387 29.263 29.263 0 0 1-2.09 8.347 28.651 28.651 0 0 1-2.707 5.07 28.416 28.416 0 0 1-1.712 2.313 28.588 28.588 0 0 1-1.933 2.133Zm0 0" style="stroke:none;fill-rule:nonzero;fill:#f69100;fill-opacity:1"></path>
    </g>
    <g clip-path="url(#b)">
      <g clip-path="url(#c)" transform="translate(0 328)">
        <g clip-path="url(#d)">
          <path d="M11.754 191.27 160.52 340.04v-45.392a29 29 0 0 0-.555-5.722 29.045 29.045 0 0 0-1.668-5.504 29.277 29.277 0 0 0-6.371-9.512L43.027 164.988 151.953 56.055a29.188 29.188 0 0 0 3.637-4.446 29.098 29.098 0 0 0 2.703-5.07 29.18 29.18 0 0 0 2.227-11.219V1.023a7758957.31 7758957.31 0 0 1-148.766 148.77c-.676.68-1.32 1.39-1.93 2.133-.61.742-1.18 1.512-1.71 2.312a29.267 29.267 0 0 0-3.68 7.781 29.68 29.68 0 0 0-1.118 5.637 29.452 29.452 0 0 0 1.118 11.387 29.267 29.267 0 0 0 3.68 7.781c.53.801 1.1 1.57 1.71 2.313.61.742 1.254 1.457 1.93 2.133Zm0 0" style="stroke:none;fill-rule:nonzero;fill:#f69100;fill-opacity:1"></path>
        </g>
      </g>
    </g>
    <g clip-path="url(#e)" transform="translate(259 127)" style="fill:#fff;fill-opacity:1">
      <g>
        <path d="M96.813-132.734v59.859h155.109V0H15.609v-338.328h236.313v72.86H96.812v59.859H228.5v72.875Zm0 0" transform="translate(.673 535.198)"></path>
      </g>
      <g style="fill:#f69100;fill-opacity:1">
        <path d="M200.922-348.75 91.609 0h-76l109.313-348.75Zm0 0" transform="translate(268.234 535.198)"></path>
      </g>
    </g>
  </symbol>

  <symbol xmlns="http://www.w3.org/2000/svg" fill="none" viewBox="0 0 284 89" id="logo-dark">
    <mask id="a" width="26" height="53" x="258" y="18" maskUnits="userSpaceOnUse">
      <path fill="#fff" d="M258.622 18.015h24.497v52.48h-24.497v-52.48Z"></path>
    </mask>
    <g mask="url(#a)">
      <path fill="#F69100" d="m281.494 47.49-22.872 22.875v-6.98a4.424 4.424 0 0 1 .342-1.725c.228-.554.555-1.04.979-1.462l16.744-16.75-16.748-16.75a4.46 4.46 0 0 1-.975-1.465 4.477 4.477 0 0 1-.342-1.724v-5.273c7.366 7.366 17.34 17.34 22.872 22.875.21.21.397.438.56.684a4.45 4.45 0 0 1 .673 1.626 4.466 4.466 0 0 1 0 1.76 4.736 4.736 0 0 1-.255.846 4.488 4.488 0 0 1-.418.778 4.38 4.38 0 0 1-.56.684Z"></path>
    </g>
    <mask id="b" width="25" height="53" x="0" y="18" maskUnits="userSpaceOnUse">
      <path fill="#fff" d="M.321 18.015h24.59v52.963H.32V18.015Z"></path>
    </mask>
    <g mask="url(#b)">
      <mask id="c" width="26" height="54" x="0" y="18" maskUnits="userSpaceOnUse">
        <path fill="#fff" d="M25.062 18.015H0v53.263h25.062V18.015Z"></path>
      </mask>
      <g mask="url(#c)">
        <mask id="d" width="25" height="53" x="0" y="18" maskUnits="userSpaceOnUse">
          <path fill="#fff" d="M.783 18.174H24.91v52.321H.783v-52.32Z"></path>
        </mask>
        <g mask="url(#d)">
          <path fill="#F69100" d="M2.128 47.49 25 70.364v-6.98a4.451 4.451 0 0 0-.34-1.725 4.444 4.444 0 0 0-.98-1.462L6.938 43.448l16.746-16.75A4.497 4.497 0 0 0 25 23.508v-5.273L2.128 41.11a4.533 4.533 0 0 0-1.233 2.31 4.573 4.573 0 0 0 0 1.76 4.572 4.572 0 0 0 .673 1.625c.164.246.352.474.56.683Z"></path>
        </g>
      </g>
    </g>
    <path fill="#262626" d="M42.905 49.901v5.642h14.617v6.872H35.251V30.521h22.271v6.866H42.905v5.642h12.408v6.872H42.905Zm24.429-21.589v34.103H60.47V28.312h6.865Zm9.764-.098v5.789h-6.816v-5.789h6.816Zm.05 8.977v25.224h-6.866V37.191h6.865Zm21.101-.147h6.865v25.371h-6.865V59.57c-1.408 1.832-3.535 2.747-6.382 2.747-3.468.034-6.443-1.176-8.927-3.629-2.489-2.455-3.75-5.434-3.781-8.934-.034-3.466 1.177-6.444 3.634-8.928 2.45-2.487 5.427-3.748 8.927-3.782 2.879 0 5.056.934 6.529 2.797v-2.797Zm-2.062 17.03c1.211-1.211 1.817-2.683 1.817-4.418 0-1.765-.623-3.238-1.866-4.418-1.245-1.24-2.702-1.827-4.369-1.762-1.735 0-3.206.604-4.418 1.811-1.208 1.212-1.81 2.685-1.81 4.418 0 1.701.619 3.175 1.86 4.418 1.21 1.209 2.682 1.812 4.417 1.812 1.765-.065 3.221-.686 4.369-1.86Zm24.429-16.834c3.601-.294 6.579.64 8.933 2.797 2.517 2.325 3.776 5.58 3.776 9.766v12.612h-6.376V49.95h-.049v-.098c0-1.733-.606-3.206-1.817-4.418-1.212-1.207-2.685-1.811-4.418-1.811-1.766.065-3.236.685-4.411 1.86-1.245 1.245-1.834 2.717-1.768 4.418v.049h-.049v12.465h-6.872v-25.37h6.872v3.285c1.537-1.83 3.597-2.86 6.179-3.09Zm40.037-6.523c4.384 0 8.147 1.554 11.289 4.663 3.104 3.105 4.656 6.866 4.656 11.284 0 4.381-1.552 8.143-4.656 11.284-3.142 3.109-6.905 4.663-11.289 4.663h-12.115V30.717h12.115Zm6.088 22.03c1.668-1.668 2.503-3.697 2.503-6.083 0-2.353-.835-4.397-2.503-6.132-1.669-1.667-3.714-2.503-6.137-2.503h-4.411v17.22h4.46c2.39 0 4.419-.833 6.088-2.503Zm36.845-1.861c.032.686.032 1.094 0 1.224l-18.448-.049c.26.751.735 1.472 1.42 2.16 1.276 1.212 2.749 1.818 4.417 1.818 1.766-.07 3.239-.692 4.418-1.867l.196-.195 6.375 2.013c-1.404 2.19-2.874 3.76-4.411 4.706-1.735 1.113-3.91 1.687-6.529 1.72-3.467.031-6.442-1.177-8.927-3.63-2.488-2.455-3.749-5.434-3.781-8.934-.034-3.466 1.178-6.444 3.635-8.928 2.45-2.488 5.427-3.748 8.927-3.782 3.466-.032 6.444 1.18 8.933 3.635 2.484 2.452 3.741 5.428 3.775 8.928v1.181Zm-12.659-7.312c-1.735 0-3.207.604-4.418 1.81-.621.69-1.062 1.378-1.322 2.063h11.528c-.262-.685-.719-1.389-1.371-2.111-1.245-1.175-2.717-1.762-4.417-1.762Zm40.381-6.432-11.73 25.273h-5.2l-12.262-25.273h7.997l6.865 14.136 6.382-14.136h7.948Z"></path>
    <path fill="#F69100" d="m251.716 29.536-10.303 32.88h-7.159l10.303-32.88h7.159Z"></path>
  </symbol>

  <symbol xmlns="http://www.w3.org/2000/svg" fill="none" viewBox="0 0 284 89" id="logo-light">
    <mask id="a" width="26" height="53" x="258" y="18" maskUnits="userSpaceOnUse">
      <path fill="#fff" d="M258.622 18.015h24.497v52.48h-24.497v-52.48Z"></path>
    </mask>
    <g mask="url(#a)">
      <path fill="#F69100" d="m281.494 47.49-22.872 22.875v-6.98a4.424 4.424 0 0 1 .342-1.725c.228-.554.555-1.04.979-1.462l16.744-16.75-16.748-16.75a4.46 4.46 0 0 1-.975-1.465 4.477 4.477 0 0 1-.342-1.724v-5.273c7.366 7.366 17.34 17.34 22.872 22.875.21.21.397.438.56.684a4.45 4.45 0 0 1 .673 1.626 4.466 4.466 0 0 1 0 1.76 4.736 4.736 0 0 1-.255.846 4.488 4.488 0 0 1-.418.778 4.38 4.38 0 0 1-.56.684Z"></path>
    </g>
    <mask id="b" width="25" height="53" x="0" y="18" maskUnits="userSpaceOnUse">
      <path fill="#fff" d="M.321 18.015h24.59v52.963H.32V18.015Z"></path>
    </mask>
    <g mask="url(#b)">
      <mask id="c" width="26" height="54" x="0" y="18" maskUnits="userSpaceOnUse">
        <path fill="#fff" d="M25.062 18.015H0v53.263h25.062V18.015Z"></path>
      </mask>
      <g mask="url(#c)">
        <mask id="d" width="25" height="53" x="0" y="18" maskUnits="userSpaceOnUse">
          <path fill="#fff" d="M.783 18.174H24.91v52.321H.783v-52.32Z"></path>
        </mask>
        <g mask="url(#d)">
          <path fill="#F69100" d="M2.128 47.49 25 70.364v-6.98a4.451 4.451 0 0 0-.34-1.725 4.444 4.444 0 0 0-.98-1.462L6.938 43.448l16.746-16.75A4.497 4.497 0 0 0 25 23.508v-5.273L2.128 41.11a4.533 4.533 0 0 0-1.233 2.31 4.573 4.573 0 0 0 0 1.76 4.572 4.572 0 0 0 .673 1.625c.164.246.352.474.56.683Z"></path>
        </g>
      </g>
    </g>
    <mask id="e" width="221" height="66" x="33" y="11" maskUnits="userSpaceOnUse">
      <path fill="#fff" d="M253.358 11.75H33.677v64.62h219.681V11.75Z"></path>
    </mask>
    <g mask="url(#e)">
      <path fill="#fff" d="M42.908 50.158v5.643h14.618v6.872H35.254V30.778h22.272v6.866H42.908v5.642h12.409v6.872H42.908ZM67.337 28.57v34.103h-6.865V28.569h6.865Zm9.763-.099v5.79h-6.816v-5.79H77.1Zm.05 8.978v25.224h-6.866V37.449h6.865Zm21.1-.147h6.866v25.37h-6.865v-2.845c-1.408 1.833-3.535 2.748-6.382 2.748-3.468.033-6.443-1.177-8.927-3.63-2.489-2.455-3.75-5.433-3.781-8.933-.034-3.467 1.177-6.444 3.634-8.928 2.45-2.488 5.427-3.749 8.927-3.782 2.879 0 5.056.933 6.529 2.796v-2.796Zm-2.061 17.03c1.211-1.212 1.817-2.683 1.817-4.418 0-1.766-.623-3.239-1.866-4.418-1.245-1.24-2.702-1.827-4.369-1.763-1.734 0-3.206.605-4.418 1.812-1.208 1.211-1.81 2.684-1.81 4.418 0 1.7.619 3.174 1.86 4.418 1.21 1.209 2.682 1.811 4.417 1.811 1.765-.064 3.222-.685 4.369-1.86Zm24.429-16.834c3.6-.294 6.579.64 8.933 2.796 2.516 2.326 3.775 5.581 3.775 9.767v12.612h-6.376V50.208h-.049v-.098c0-1.734-.605-3.207-1.817-4.419-1.211-1.207-2.684-1.81-4.417-1.81-1.767.065-3.237.684-4.412 1.86-1.245 1.245-1.834 2.716-1.768 4.417v.05h-.049v12.465h-6.871V37.302h6.871v3.286c1.537-1.831 3.598-2.86 6.18-3.09Zm40.035-6.524c4.384 0 8.147 1.555 11.289 4.663 3.104 3.106 4.656 6.866 4.656 11.284 0 4.382-1.552 8.144-4.656 11.285-3.142 3.108-6.905 4.662-11.289 4.662h-12.115V30.974h12.115Zm6.088 22.03c1.667-1.667 2.503-3.696 2.503-6.083 0-2.352-.836-4.396-2.503-6.131-1.669-1.668-3.714-2.503-6.137-2.503h-4.411v17.22h4.46c2.389 0 4.419-.834 6.088-2.503Zm36.844-1.86c.032.685.032 1.094 0 1.224l-18.448-.05c.26.752.734 1.472 1.42 2.16 1.275 1.212 2.749 1.818 4.417 1.818 1.766-.069 3.239-.691 4.418-1.866l.196-.196 6.375 2.013c-1.404 2.191-2.874 3.76-4.411 4.706-1.735 1.114-3.91 1.688-6.529 1.72-3.467.032-6.443-1.177-8.927-3.63-2.488-2.454-3.749-5.433-3.781-8.933-.034-3.467 1.178-6.444 3.634-8.929 2.451-2.487 5.428-3.748 8.927-3.781 3.467-.032 6.445 1.18 8.934 3.635 2.484 2.452 3.741 5.427 3.775 8.928v1.18Zm-12.66-7.313c-1.734 0-3.206.604-4.417 1.811-.621.69-1.062 1.377-1.322 2.063h11.528c-.262-.686-.719-1.39-1.371-2.111-1.245-1.175-2.717-1.763-4.418-1.763Zm40.381-6.431-11.73 25.273h-5.2L202.114 37.4h7.997l6.865 14.135 6.382-14.135h7.948Z"></path>
      <path fill="#F69100" d="m251.713 29.793-10.304 32.88h-7.158l10.303-32.88h7.159Z"></path>
      </g>
  </symbol>
  
  <symbol xmlns="http://www.w3.org/2000/svg" fill="none" viewBox="0 0 24 24" id="arrow">
    <path stroke="currentColor" stroke-linecap="round" stroke-linejoin="round" stroke-width="2" d="M12 5v14m0-14-6 6m6-6 6 6"></path>
  </symbol>

  <symbol xmlns="http://www.w3.org/2000/svg" viewBox="0 0 72 72" id="mouse">
    <g fill="none" stroke="currentColor" stroke-linecap="round" stroke-linejoin="round" stroke-miterlimit="10" stroke-width="2">
      <path d="M38.83 54.501h-5.537c-4.97 0-9.035-4.065-9.035-9.034V26.38c0-4.969 4.066-9.034 9.035-9.034h5.536c4.97 0 9.035 4.065 9.035 9.034v19.087c0 4.969-4.066 9.034-9.035 9.034z"></path>
      <path d="M36.145 32.155h-.168a2.035 2.035 0 0 1-2.03-2.03V24.08c0-1.116.914-2.029 2.03-2.029h.168c1.116 0 2.03.913 2.03 2.03v6.046c0 1.116-.914 2.03-2.03 2.03zm5.186 27.861-5.216 5.216m-5.258-5.216 5.216 5.216m-5.216-53.34 5.216-5.216m5.258 5.216-5.216-5.216"></path>
    </g>
  </symbol>
  <symbol xmlns="http://www.w3.org/2000/svg" fill="none" viewBox="0 0 24 24" id="email">
    <g stroke="currentColor" stroke-linecap="round">
      <path stroke-linejoin="round" d="m4 7 6.2 4.65a3 3 0 0 0 3.6 0L20 7"></path>
      <rect width="18" height="14" x="3" y="5" rx="2"></rect>
    </g>
  </symbol>
  <symbol xmlns="http://www.w3.org/2000/svg" fill="none" viewBox="0 0 24 24" id="like">
    <path fill="currentColor" d="m20.975 12.185-.739-.128.74.128Zm-.705 4.08-.74-.128.74.128ZM6.938 20.477l-.747.065.747-.065Zm-.812-9.393.747-.064-.747.064Zm7.869-5.863.74.122-.74-.122Zm-.663 4.045.74.121-.74-.121Zm-6.634.411-.49-.568.49.568Zm1.439-1.24.49.569-.49-.568Zm2.381-3.653-.726-.189.726.189Zm.476-1.834.726.188-.726-.188Zm1.674-.886-.23.714.23-.714Zm.145.047.229-.714-.23.714ZM9.862 6.463l.662.353-.662-.353Zm4.043-3.215-.726.188.726-.188Zm-2.23-1.116-.326-.675.325.675ZM3.971 21.471l-.748.064.748-.064ZM3 10.234l.747-.064a.75.75 0 0 0-1.497.064H3Zm17.236 1.823-.705 4.08 1.478.256.705-4.08-1.478-.256Zm-6.991 9.193H8.596v1.5h4.649v-1.5Zm-5.56-.837-.812-9.393-1.495.129.813 9.393 1.494-.13Zm11.846-4.276c-.507 2.93-3.15 5.113-6.286 5.113v1.5c3.826 0 7.126-2.669 7.764-6.357l-1.478-.256ZM13.255 5.1l-.663 4.045 1.48.242.663-4.044-1.48-.243Zm-6.067 5.146 1.438-1.24-.979-1.136L6.21 9.11l.979 1.136Zm4.056-5.274.476-1.834-1.452-.376-.476 1.833 1.452.377Zm1.194-2.194.145.047.459-1.428-.145-.047-.459 1.428Zm-1.915 4.038a8.378 8.378 0 0 0 .721-1.844l-1.452-.377A6.878 6.878 0 0 1 9.2 6.11l1.324.707Zm2.06-3.991a.885.885 0 0 1 .596.61l1.452-.376a2.385 2.385 0 0 0-1.589-1.662l-.459 1.428Zm-.863.313a.515.515 0 0 1 .28-.33l-.651-1.351c-.532.256-.932.73-1.081 1.305l1.452.376Zm.28-.33a.596.596 0 0 1 .438-.03l.459-1.428a2.096 2.096 0 0 0-1.548.107l.65 1.351Zm2.154 8.176h5.18v-1.5h-5.18v1.5ZM4.719 21.406 3.747 10.17l-1.494.129.971 11.236 1.495-.129Zm-.969.107V10.234h-1.5v11.279h1.5Zm-.526.022a.263.263 0 0 1 .263-.285v1.5c.726 0 1.294-.622 1.232-1.344l-1.495.13ZM14.735 5.343a5.533 5.533 0 0 0-.104-2.284l-1.452.377a4.03 4.03 0 0 1 .076 1.664l1.48.243ZM8.596 21.25a.916.916 0 0 1-.911-.837l-1.494.129a2.416 2.416 0 0 0 2.405 2.208v-1.5Zm.03-12.244c.68-.586 1.413-1.283 1.898-2.19L9.2 6.109c-.346.649-.897 1.196-1.553 1.76l.98 1.137Zm13.088 3.307a2.416 2.416 0 0 0-2.38-2.829v1.5c.567 0 1 .512.902 1.073l1.478.256ZM3.487 21.25c.146 0 .263.118.263.263h-1.5c0 .682.553 1.237 1.237 1.237v-1.5Zm9.105-12.105a1.583 1.583 0 0 0 1.562 1.84v-1.5a.083.083 0 0 1-.082-.098l-1.48-.242Zm-5.72 1.875a.918.918 0 0 1 .316-.774l-.98-1.137a2.418 2.418 0 0 0-.83 2.04l1.495-.13Z"></path>
  </symbol>
</svg>

