<!-- SVG Sprite -->
<svg width="0" height="0" class="hidden">
  <symbol xmlns="http://www.w3.org/2000/svg" fill="none" stroke="currentColor" stroke-width="1.5" viewBox="0 0 24 24" id="sun">
    <path stroke-linecap="round" stroke-linejoin="round" d="M12 3v2.25m6.364.386-1.591 1.591M21 12h-2.25m-.386 6.364-1.591-1.591M12 18.75V21m-4.773-4.227-1.591 1.591M5.25 12H3m4.227-4.773L5.636 5.636M15.75 12a3.75 3.75 0 1 1-7.5 0 3.75 3.75 0 0 1 7.5 0Z"></path>
  </symbol>
  <symbol xmlns="http://www.w3.org/2000/svg" fill="none" viewBox="0 0 24 24" id="cup">
    <g stroke="currentColor" stroke-width="1.5">
      <path d="M3 7c0-1.886 0-2.828.586-3.414C4.172 3 5.114 3 7 3h6c1.886 0 2.828 0 3.414.586C17 4.172 17 5.114 17 7v5c0 2.828 0 4.243-.879 5.121C15.243 18 13.828 18 11 18H9c-2.828 0-4.243 0-5.121-.879C3 16.243 3 14.828 3 12V7Zm14 6h1a4 4 0 0 0 0-8h-1m0 8H3"></path>
      <path stroke-linecap="round" d="M22 21H2"></path>
    </g>
  </symbol>
  <symbol xmlns="http://www.w3.org/2000/svg" fill="none" stroke="currentColor" stroke-width="1.5" viewBox="0 0 24 24" id="moon">
    <path stroke-linecap="round" stroke-linejoin="round" d="M21.752 15.002A9.72 9.72 0 0 1 18 15.75 9.75 9.75 0 0 1 8.25 6c0-1.33.266-2.597.748-3.752A9.753 9.753 0 0 0 3 11.25 9.75 9.75 0 0 0 12.75 21a9.753 9.753 0 0 0 9.002-5.998Z"></path>
  </symbol>
  <symbol xmlns="http://www.w3.org/2000/svg" fill="none" viewBox="0 0 24 24" id="Contact">
    <path fill="currentColor" d="m16.1 13.359-.528-.532.529.532Zm.456-.453.529.532-.529-.532Zm2.417-.317-.358.66.358-.66Zm1.91 1.039-.358.659.358-.659Zm.539 3.255.529.532-.53-.532Zm-1.42 1.412-.53-.531.53.531Zm-1.326.67.07.747-.07-.747Zm-9.86-4.238.528-.532-.529.532ZM4.002 5.746l-.749.042.749-.042Zm6.474 1.451.53.532-.53-.532Zm.157-2.654.6-.449-.6.45ZM9.374 2.86l-.601.45.6-.45ZM6.26 2.575l.53.532-.53-.532Zm-1.57 1.56-.528-.531.529.532Zm7.372 7.362.529-.532-.529.532Zm4.566 2.394.456-.453-1.058-1.064-.455.453 1.058 1.064Zm1.986-.643 1.91 1.039.716-1.318-1.91-1.038-.716 1.317Zm2.278 3.103-1.42 1.413 1.057 1.063 1.42-1.412-1.057-1.064Zm-2.286 1.867c-1.45.136-5.201.015-9.263-4.023l-1.057 1.063c4.432 4.407 8.65 4.623 10.459 4.454l-.14-1.494Zm-9.263-4.023c-3.871-3.85-4.512-7.087-4.592-8.492l-1.498.085c.1 1.768.895 5.356 5.033 9.47l1.057-1.063Zm1.376-6.18.286-.286L9.95 6.666l-.287.285 1.057 1.063Zm.515-3.921L9.974 2.41l-1.201.899 1.26 1.684 1.202-.899ZM5.733 2.043l-1.57 1.56 1.058 1.064 1.57-1.56-1.058-1.064Zm4.458 5.44c-.53-.532-.53-.532-.53-.53h-.002l-.003.004a1.064 1.064 0 0 0-.127.157c-.054.08-.113.185-.163.318a2.099 2.099 0 0 0-.088 1.071c.134.865.73 2.008 2.256 3.526l1.058-1.064c-1.429-1.42-1.769-2.284-1.832-2.692-.03-.194.001-.29.01-.312.005-.014.007-.015 0-.006a.276.276 0 0 1-.03.039l-.01.01a.203.203 0 0 1-.01.009l-.53-.53Zm1.343 4.546c1.527 1.518 2.676 2.11 3.542 2.242.443.068.8.014 1.071-.087a1.536 1.536 0 0 0 .42-.236.923.923 0 0 0 .05-.045l.007-.006.003-.003.001-.002s.002-.001-.527-.533c-.53-.532-.528-.533-.528-.533l.002-.002.002-.002.006-.005.01-.01a.383.383 0 0 1 .038-.03c.01-.007.007-.004-.007.002-.025.009-.123.04-.32.01-.414-.064-1.284-.404-2.712-1.824l-1.058 1.064Zm-1.56-9.62C8.954 1.049 6.95.834 5.733 2.044L6.79 3.107c.532-.529 1.476-.475 1.983.202l1.2-.9ZM4.752 5.704c-.02-.346.139-.708.469-1.036L4.163 3.604c-.537.534-.96 1.29-.909 2.184l1.498-.085Zm14.72 12.06c-.274.274-.57.428-.865.455l.139 1.494c.735-.069 1.336-.44 1.784-.885l-1.058-1.063ZM11.006 7.73c.985-.979 1.058-2.527.229-3.635l-1.201.899c.403.539.343 1.246-.085 1.673l1.057 1.063Zm9.52 6.558c.817.444.944 1.49.367 2.064l1.058 1.064c1.34-1.333.927-3.557-.71-4.446l-.716 1.318Zm-3.441-.849c.384-.382 1.002-.476 1.53-.19l.716-1.317c-1.084-.59-2.428-.427-3.304.443l1.058 1.064Z"></path>
  </symbol>
  <symbol xmlns="http://www.w3.org/2000/svg" fill="none" stroke="currentColor" stroke-width="1.5" viewBox="0 0 24 24" id="folder">
    <path stroke-linecap="round" stroke-linejoin="round" d="M3.75 9.776c.112-.017.227-.026.344-.026h15.812c.117 0 .232.009.344.026m-16.5 0a2.25 2.25 0 0 0-1.883 2.542l.857 6a2.25 2.25 0 0 0 2.227 1.932H19.05a2.25 2.25 0 0 0 2.227-1.932l.857-6a2.25 2.25 0 0 0-1.883-2.542m-16.5 0V6A2.25 2.25 0 0 1 6 3.75h3.879a1.5 1.5 0 0 1 1.06.44l2.122 2.12a1.5 1.5 0 0 0 1.06.44H18A2.25 2.25 0 0 1 20.25 9v.776"></path>
  </symbol>
  <symbol xmlns="http://www.w3.org/2000/svg" fill="none" stroke="currentColor" stroke-width="1.5" viewBox="0 0 24 24" id="home">
    <path stroke-linecap="round" stroke-linejoin="round" d="m2.25 12 8.954-8.955a1.126 1.126 0 0 1 1.591 0L21.75 12M4.5 9.75v10.125c0 .621.504 1.125 1.125 1.125H9.75v-4.875c0-.621.504-1.125 1.125-1.125h2.25c.621 0 1.125.504 1.125 1.125V21h4.125c.621 0 1.125-.504 1.125-1.125V9.75M8.25 21h8.25"></path>
  </symbol>
  <symbol xmlns="http://www.w3.org/2000/svg" fill="none" stroke="currentColor" stroke-width="1.5" viewBox="0 0 24 24" id="bars">
    <path stroke-linecap="round" stroke-linejoin="round" d="M3.75 6.75h16.5M3.75 12h16.5m-16.5 5.25H12"></path>
  </symbol>
  <symbol xmlns="http://www.w3.org/2000/svg" fill="currentColor" viewBox="0 0 256 256" id="brain">
    <path d="M248 132a56.121 56.121 0 0 0-32-50.61V72a47.983 47.983 0 0 0-88-26.493A47.983 47.983 0 0 0 40 72v9.39a56.003 56.003 0 0 0 0 101.196V184a47.983 47.983 0 0 0 88 26.493A47.983 47.983 0 0 0 216 184v-1.414A56.067 56.067 0 0 0 248 132ZM88 216a32.043 32.043 0 0 1-31.812-28.557A56.174 56.174 0 0 0 64 188h8a8 8 0 0 0 0-16h-8a40.008 40.008 0 0 1-13.334-77.726 8 8 0 0 0 5.333-7.542L56 72a32 32 0 0 1 64 0v76.261A47.803 47.803 0 0 0 88 136a8 8 0 0 0 0 16 32 32 0 0 1 0 64Zm104-44h-8a8 8 0 0 0 0 16h8a56.174 56.174 0 0 0 7.812-.557A31.999 31.999 0 1 1 168 152a8 8 0 0 0 0-16 47.803 47.803 0 0 0-32 12.261V72a32 32 0 1 1 64 0l.001 14.732a8 8 0 0 0 5.333 7.542A40.008 40.008 0 0 1 192 172ZM60 128a8 8 0 0 1 0-16 20.023 20.023 0 0 0 20-20v-8a8 8 0 0 1 16 0v8a36.04 36.04 0 0 1-36 36Zm144-8a8 8 0 0 1-8 8 36.04 36.04 0 0 1-36-36v-8a8 8 0 0 1 16 0v8a20.023 20.023 0 0 0 20 20 8 8 0 0 1 8 8Z"></path>
  </symbol>
  <symbol xmlns="http://www.w3.org/2000/svg" fill="none" stroke="currentColor" stroke-width="1.5" viewBox="0 0 24 24" id="language">
    <path stroke-linecap="round" stroke-linejoin="round" d="m10.5 21 5.25-11.25L21 21m-9-3h7.5M3 5.621a48.474 48.474 0 0 1 6-.371m0 0c1.12 0 2.233.038 3.334.114M9 5.25V3m3.334 2.364C11.176 10.658 7.69 15.08 3 17.502m9.334-12.138A47.63 47.63 0 0 1 15 5.621m-4.589 8.495a18.023 18.023 0 0 1-3.827-5.802"></path>
  </symbol>
  <symbol xmlns="http://www.w3.org/2000/svg" fill="currentColor" viewBox="0 0 32 32" id="certificate">
    <path d="M22.994 28.996H8.934a1 1 0 1 0 0 2h14.06a1 1 0 0 0 0-2zm8.797-25.195a1 1 0 0 0-.979-.799h-4.895v-.998a1 1 0 0 0-1-1H6.932a1 1 0 0 0-1 1v.998H1.189a1 1 0 0 0-.98.799c-.029.144-.7 3.648 1.247 6.036 1.12 1.373 2.831 2.091 5.078 2.155 1.281 3.786 4.502 6.59 8.381 7.008v6.966h-2.993a1 1 0 1 0 0 2h8.084a1 1 0 0 0 0-2h-3.091v-6.965c3.886-.41 7.114-3.213 8.398-7.003 2.323-.034 4.085-.758 5.231-2.162 1.947-2.388 1.276-5.891 1.247-6.036zM3.013 8.58c-.885-1.078-.975-2.669-.929-3.578h3.849v3.376c0 .54.05 1.068.123 1.587-1.365-.127-2.389-.588-3.042-1.385zm20.904-.202c0 4.784-3.585 8.677-7.991 8.677-4.408 0-7.994-3.893-7.994-8.677V3.004h15.986v5.374zm5.071.202c-.677.826-1.751 1.296-3.196 1.402.075-.524.125-1.057.125-1.604V5.002h4c.045.91-.044 2.5-.93 3.578z"></path>
  </symbol>

  <symbol xmlns="http://www.w3.org/2000/svg" fill="none" viewBox="0 0 24 24" id="contact">
    <path fill="currentColor" d="m16.1 13.359-.528-.532.529.532Zm.456-.453.529.532-.529-.532Zm2.417-.317-.358.66.358-.66Zm1.91 1.039-.358.659.358-.659Zm.539 3.255.529.532-.53-.532Zm-1.42 1.412-.53-.531.53.531Zm-1.326.67.07.747-.07-.747Zm-9.86-4.238.528-.532-.529.532ZM4.002 5.746l-.749.042.749-.042Zm6.474 1.451.53.532-.53-.532Zm.157-2.654.6-.449-.6.45ZM9.374 2.86l-.601.45.6-.45ZM6.26 2.575l.53.532-.53-.532Zm-1.57 1.56-.528-.531.529.532Zm7.372 7.362.529-.532-.529.532Zm4.566 2.394.456-.453-1.058-1.064-.455.453 1.058 1.064Zm1.986-.643 1.91 1.039.716-1.318-1.91-1.038-.716 1.317Zm2.278 3.103-1.42 1.413 1.057 1.063 1.42-1.412-1.057-1.064Zm-2.286 1.867c-1.45.136-5.201.015-9.263-4.023l-1.057 1.063c4.432 4.407 8.65 4.623 10.459 4.454l-.14-1.494Zm-9.263-4.023c-3.871-3.85-4.512-7.087-4.592-8.492l-1.498.085c.1 1.768.895 5.356 5.033 9.47l1.057-1.063Zm1.376-6.18.286-.286L9.95 6.666l-.287.285 1.057 1.063Zm.515-3.921L9.974 2.41l-1.201.899 1.26 1.684 1.202-.899ZM5.733 2.043l-1.57 1.56 1.058 1.064 1.57-1.56-1.058-1.064Zm4.458 5.44c-.53-.532-.53-.532-.53-.53h-.002l-.003.004a1.064 1.064 0 0 0-.127.157c-.054.08-.113.185-.163.318a2.099 2.099 0 0 0-.088 1.071c.134.865.73 2.008 2.256 3.526l1.058-1.064c-1.429-1.42-1.769-2.284-1.832-2.692-.03-.194.001-.29.01-.312.005-.014.007-.015 0-.006a.276.276 0 0 1-.03.039l-.01.01a.203.203 0 0 1-.01.009l-.53-.53Zm1.343 4.546c1.527 1.518 2.676 2.11 3.542 2.242.443.068.8.014 1.071-.087a1.536 1.536 0 0 0 .42-.236.923.923 0 0 0 .05-.045l.007-.006.003-.003.001-.002s.002-.001-.527-.533c-.53-.532-.528-.533-.528-.533l.002-.002.002-.002.006-.005.01-.01a.383.383 0 0 1 .038-.03c.01-.007.007-.004-.007.002-.025.009-.123.04-.32.01-.414-.064-1.284-.404-2.712-1.824l-1.058 1.064Zm-1.56-9.62C8.954 1.049 6.95.834 5.733 2.044L6.79 3.107c.532-.529 1.476-.475 1.983.202l1.2-.9ZM4.752 5.704c-.02-.346.139-.708.469-1.036L4.163 3.604c-.537.534-.96 1.29-.909 2.184l1.498-.085Zm14.72 12.06c-.274.274-.57.428-.865.455l.139 1.494c.735-.069 1.336-.44 1.784-.885l-1.058-1.063ZM11.006 7.73c.985-.979 1.058-2.527.229-3.635l-1.201.899c.403.539.343 1.246-.085 1.673l1.057 1.063Zm9.52 6.558c.817.444.944 1.49.367 2.064l1.058 1.064c1.34-1.333.927-3.557-.71-4.446l-.716 1.318Zm-3.441-.849c.384-.382 1.002-.476 1.53-.19l.716-1.317c-1.084-.59-2.428-.427-3.304.443l1.058 1.064Z"></path>
  </symbol>
</svg>
